<mxfile host="Electron" agent="Mozilla/5.0 (Windows NT 10.0; Win64; x64) AppleWebKit/537.36 (KHTML, like Gecko) draw.io/24.7.8 Chrome/128.0.6613.36 Electron/32.0.1 Safari/537.36" version="24.7.8">
  <diagram name="Página-1" id="pGoa9dy7samBv2fhjsjM">
    <mxGraphModel dx="1354" dy="818" grid="1" gridSize="10" guides="1" tooltips="1" connect="1" arrows="1" fold="1" page="1" pageScale="1" pageWidth="827" pageHeight="1169" math="0" shadow="0">
      <root>
        <mxCell id="0" />
        <mxCell id="1" parent="0" />
        <mxCell id="QNg-gRqNgSrWkJkMe1LB-8" value="" style="edgeStyle=orthogonalEdgeStyle;rounded=0;orthogonalLoop=1;jettySize=auto;html=1;" edge="1" parent="1" source="QNg-gRqNgSrWkJkMe1LB-1" target="QNg-gRqNgSrWkJkMe1LB-2">
          <mxGeometry relative="1" as="geometry" />
        </mxCell>
        <mxCell id="QNg-gRqNgSrWkJkMe1LB-38" style="edgeStyle=orthogonalEdgeStyle;rounded=0;orthogonalLoop=1;jettySize=auto;html=1;entryX=0.5;entryY=0;entryDx=0;entryDy=0;" edge="1" parent="1" source="QNg-gRqNgSrWkJkMe1LB-1" target="QNg-gRqNgSrWkJkMe1LB-29">
          <mxGeometry relative="1" as="geometry">
            <Array as="points">
              <mxPoint x="185" y="210" />
              <mxPoint x="185" y="210" />
            </Array>
          </mxGeometry>
        </mxCell>
        <mxCell id="QNg-gRqNgSrWkJkMe1LB-1" value="CLIENTE" style="whiteSpace=wrap;html=1;" vertex="1" parent="1">
          <mxGeometry x="80" y="110" width="120" height="60" as="geometry" />
        </mxCell>
        <mxCell id="QNg-gRqNgSrWkJkMe1LB-9" value="" style="edgeStyle=orthogonalEdgeStyle;rounded=0;orthogonalLoop=1;jettySize=auto;html=1;" edge="1" parent="1" source="QNg-gRqNgSrWkJkMe1LB-2" target="QNg-gRqNgSrWkJkMe1LB-3">
          <mxGeometry relative="1" as="geometry" />
        </mxCell>
        <mxCell id="QNg-gRqNgSrWkJkMe1LB-2" value="posee" style="rhombus;whiteSpace=wrap;html=1;" vertex="1" parent="1">
          <mxGeometry x="115" y="445" width="50" height="50" as="geometry" />
        </mxCell>
        <mxCell id="QNg-gRqNgSrWkJkMe1LB-6" value="" style="edgeStyle=orthogonalEdgeStyle;rounded=0;orthogonalLoop=1;jettySize=auto;html=1;" edge="1" parent="1" source="QNg-gRqNgSrWkJkMe1LB-3" target="QNg-gRqNgSrWkJkMe1LB-5">
          <mxGeometry relative="1" as="geometry" />
        </mxCell>
        <mxCell id="QNg-gRqNgSrWkJkMe1LB-3" value="FICHA" style="whiteSpace=wrap;html=1;" vertex="1" parent="1">
          <mxGeometry x="210" y="440" width="120" height="60" as="geometry" />
        </mxCell>
        <mxCell id="QNg-gRqNgSrWkJkMe1LB-19" value="" style="edgeStyle=orthogonalEdgeStyle;rounded=0;orthogonalLoop=1;jettySize=auto;html=1;" edge="1" parent="1" source="QNg-gRqNgSrWkJkMe1LB-4" target="QNg-gRqNgSrWkJkMe1LB-18">
          <mxGeometry relative="1" as="geometry" />
        </mxCell>
        <mxCell id="QNg-gRqNgSrWkJkMe1LB-42" style="edgeStyle=orthogonalEdgeStyle;rounded=0;orthogonalLoop=1;jettySize=auto;html=1;entryX=0.5;entryY=0;entryDx=0;entryDy=0;" edge="1" parent="1" source="QNg-gRqNgSrWkJkMe1LB-4" target="QNg-gRqNgSrWkJkMe1LB-41">
          <mxGeometry relative="1" as="geometry" />
        </mxCell>
        <mxCell id="QNg-gRqNgSrWkJkMe1LB-46" style="edgeStyle=orthogonalEdgeStyle;rounded=0;orthogonalLoop=1;jettySize=auto;html=1;entryX=0.5;entryY=0;entryDx=0;entryDy=0;" edge="1" parent="1" source="QNg-gRqNgSrWkJkMe1LB-4" target="QNg-gRqNgSrWkJkMe1LB-45">
          <mxGeometry relative="1" as="geometry">
            <Array as="points">
              <mxPoint x="510" y="400" />
            </Array>
          </mxGeometry>
        </mxCell>
        <mxCell id="QNg-gRqNgSrWkJkMe1LB-4" value="ATENCION" style="whiteSpace=wrap;html=1;" vertex="1" parent="1">
          <mxGeometry x="400" y="290" width="120" height="60" as="geometry" />
        </mxCell>
        <mxCell id="QNg-gRqNgSrWkJkMe1LB-7" value="" style="edgeStyle=orthogonalEdgeStyle;rounded=0;orthogonalLoop=1;jettySize=auto;html=1;" edge="1" parent="1" source="QNg-gRqNgSrWkJkMe1LB-5" target="QNg-gRqNgSrWkJkMe1LB-4">
          <mxGeometry relative="1" as="geometry">
            <Array as="points">
              <mxPoint x="405" y="398" />
              <mxPoint x="420" y="398" />
            </Array>
          </mxGeometry>
        </mxCell>
        <mxCell id="QNg-gRqNgSrWkJkMe1LB-5" value="determina" style="rhombus;whiteSpace=wrap;html=1;" vertex="1" parent="1">
          <mxGeometry x="380" y="445" width="50" height="50" as="geometry" />
        </mxCell>
        <mxCell id="QNg-gRqNgSrWkJkMe1LB-12" style="edgeStyle=orthogonalEdgeStyle;rounded=0;orthogonalLoop=1;jettySize=auto;html=1;entryX=0.5;entryY=0;entryDx=0;entryDy=0;" edge="1" parent="1" source="QNg-gRqNgSrWkJkMe1LB-10" target="QNg-gRqNgSrWkJkMe1LB-1">
          <mxGeometry relative="1" as="geometry" />
        </mxCell>
        <mxCell id="QNg-gRqNgSrWkJkMe1LB-13" style="edgeStyle=orthogonalEdgeStyle;rounded=0;orthogonalLoop=1;jettySize=auto;html=1;entryX=0.5;entryY=0;entryDx=0;entryDy=0;" edge="1" parent="1" source="QNg-gRqNgSrWkJkMe1LB-10" target="QNg-gRqNgSrWkJkMe1LB-11">
          <mxGeometry relative="1" as="geometry" />
        </mxCell>
        <mxCell id="QNg-gRqNgSrWkJkMe1LB-37" style="edgeStyle=orthogonalEdgeStyle;rounded=0;orthogonalLoop=1;jettySize=auto;html=1;entryX=1;entryY=0.5;entryDx=0;entryDy=0;" edge="1" parent="1" source="QNg-gRqNgSrWkJkMe1LB-10" target="QNg-gRqNgSrWkJkMe1LB-34">
          <mxGeometry relative="1" as="geometry" />
        </mxCell>
        <mxCell id="QNg-gRqNgSrWkJkMe1LB-10" value="PERSONA" style="whiteSpace=wrap;html=1;" vertex="1" parent="1">
          <mxGeometry x="170" y="10" width="120" height="60" as="geometry" />
        </mxCell>
        <mxCell id="QNg-gRqNgSrWkJkMe1LB-15" value="" style="edgeStyle=orthogonalEdgeStyle;rounded=0;orthogonalLoop=1;jettySize=auto;html=1;" edge="1" parent="1" source="QNg-gRqNgSrWkJkMe1LB-11" target="QNg-gRqNgSrWkJkMe1LB-14">
          <mxGeometry relative="1" as="geometry" />
        </mxCell>
        <mxCell id="QNg-gRqNgSrWkJkMe1LB-11" value="PELUQUERO" style="whiteSpace=wrap;html=1;" vertex="1" parent="1">
          <mxGeometry x="250" y="110" width="120" height="60" as="geometry" />
        </mxCell>
        <mxCell id="QNg-gRqNgSrWkJkMe1LB-16" style="edgeStyle=orthogonalEdgeStyle;rounded=0;orthogonalLoop=1;jettySize=auto;html=1;entryX=0.5;entryY=0;entryDx=0;entryDy=0;" edge="1" parent="1" source="QNg-gRqNgSrWkJkMe1LB-14" target="QNg-gRqNgSrWkJkMe1LB-4">
          <mxGeometry relative="1" as="geometry" />
        </mxCell>
        <mxCell id="QNg-gRqNgSrWkJkMe1LB-14" value="realiza" style="rhombus;whiteSpace=wrap;html=1;" vertex="1" parent="1">
          <mxGeometry x="435" y="180" width="50" height="50" as="geometry" />
        </mxCell>
        <mxCell id="QNg-gRqNgSrWkJkMe1LB-39" value="" style="edgeStyle=orthogonalEdgeStyle;rounded=0;orthogonalLoop=1;jettySize=auto;html=1;" edge="1" parent="1" source="QNg-gRqNgSrWkJkMe1LB-17" target="QNg-gRqNgSrWkJkMe1LB-23">
          <mxGeometry relative="1" as="geometry" />
        </mxCell>
        <mxCell id="QNg-gRqNgSrWkJkMe1LB-17" value="TRATAMIENTO" style="whiteSpace=wrap;html=1;" vertex="1" parent="1">
          <mxGeometry x="660" y="290" width="120" height="60" as="geometry" />
        </mxCell>
        <mxCell id="QNg-gRqNgSrWkJkMe1LB-20" value="" style="edgeStyle=orthogonalEdgeStyle;rounded=0;orthogonalLoop=1;jettySize=auto;html=1;" edge="1" parent="1" source="QNg-gRqNgSrWkJkMe1LB-18" target="QNg-gRqNgSrWkJkMe1LB-17">
          <mxGeometry relative="1" as="geometry" />
        </mxCell>
        <mxCell id="QNg-gRqNgSrWkJkMe1LB-18" value="aplica" style="rhombus;whiteSpace=wrap;html=1;" vertex="1" parent="1">
          <mxGeometry x="570" y="290" width="60" height="60" as="geometry" />
        </mxCell>
        <mxCell id="QNg-gRqNgSrWkJkMe1LB-21" value="COMPONENTE" style="whiteSpace=wrap;html=1;" vertex="1" parent="1">
          <mxGeometry x="660" y="110" width="120" height="60" as="geometry" />
        </mxCell>
        <mxCell id="QNg-gRqNgSrWkJkMe1LB-24" value="" style="edgeStyle=orthogonalEdgeStyle;rounded=0;orthogonalLoop=1;jettySize=auto;html=1;" edge="1" parent="1" source="QNg-gRqNgSrWkJkMe1LB-23" target="QNg-gRqNgSrWkJkMe1LB-21">
          <mxGeometry relative="1" as="geometry" />
        </mxCell>
        <mxCell id="QNg-gRqNgSrWkJkMe1LB-23" value="usa" style="rhombus;whiteSpace=wrap;html=1;" vertex="1" parent="1">
          <mxGeometry x="700" y="210" width="40" height="40" as="geometry" />
        </mxCell>
        <mxCell id="QNg-gRqNgSrWkJkMe1LB-31" style="edgeStyle=orthogonalEdgeStyle;rounded=0;orthogonalLoop=1;jettySize=auto;html=1;entryX=0;entryY=0.5;entryDx=0;entryDy=0;" edge="1" parent="1" source="QNg-gRqNgSrWkJkMe1LB-29" target="QNg-gRqNgSrWkJkMe1LB-4">
          <mxGeometry relative="1" as="geometry">
            <mxPoint x="420" y="350" as="targetPoint" />
            <Array as="points">
              <mxPoint x="250" y="320" />
              <mxPoint x="250" y="320" />
            </Array>
          </mxGeometry>
        </mxCell>
        <mxCell id="QNg-gRqNgSrWkJkMe1LB-29" value="recibe" style="rhombus;whiteSpace=wrap;html=1;" vertex="1" parent="1">
          <mxGeometry x="160" y="295" width="50" height="50" as="geometry" />
        </mxCell>
        <mxCell id="QNg-gRqNgSrWkJkMe1LB-33" value="&lt;pre style=&quot;font-size: 8px;&quot;&gt;&lt;font style=&quot;font-size: 8px;&quot;&gt;N° o&lt;br&gt;&lt;/font&gt;&lt;font style=&quot;font-size: 8px;&quot;&gt;Calle o&lt;br&gt;&lt;/font&gt;&lt;font style=&quot;font-size: 8px;&quot;&gt;Piso (0,1) o&lt;br&gt;&lt;/font&gt;&lt;font style=&quot;font-size: 8px;&quot;&gt;Depto (0,1) o&lt;/font&gt;&lt;/pre&gt;" style="text;html=1;align=right;verticalAlign=middle;resizable=0;points=[];autosize=1;strokeColor=none;fillColor=none;" vertex="1" parent="1">
          <mxGeometry y="5" width="90" height="70" as="geometry" />
        </mxCell>
        <mxCell id="QNg-gRqNgSrWkJkMe1LB-34" value="Direccion" style="ellipse;whiteSpace=wrap;html=1;" vertex="1" parent="1">
          <mxGeometry x="90" y="15" width="70" height="50" as="geometry" />
        </mxCell>
        <mxCell id="QNg-gRqNgSrWkJkMe1LB-44" value="" style="edgeStyle=orthogonalEdgeStyle;rounded=0;orthogonalLoop=1;jettySize=auto;html=1;" edge="1" parent="1" source="QNg-gRqNgSrWkJkMe1LB-41" target="QNg-gRqNgSrWkJkMe1LB-43">
          <mxGeometry relative="1" as="geometry" />
        </mxCell>
        <mxCell id="QNg-gRqNgSrWkJkMe1LB-41" value="se paga" style="rhombus;whiteSpace=wrap;html=1;" vertex="1" parent="1">
          <mxGeometry x="455" y="390" width="50" height="50" as="geometry" />
        </mxCell>
        <mxCell id="QNg-gRqNgSrWkJkMe1LB-43" value="EFECTIVO" style="whiteSpace=wrap;html=1;" vertex="1" parent="1">
          <mxGeometry x="420" y="500" width="120" height="60" as="geometry" />
        </mxCell>
        <mxCell id="QNg-gRqNgSrWkJkMe1LB-48" value="" style="edgeStyle=orthogonalEdgeStyle;rounded=0;orthogonalLoop=1;jettySize=auto;html=1;" edge="1" parent="1" source="QNg-gRqNgSrWkJkMe1LB-45" target="QNg-gRqNgSrWkJkMe1LB-47">
          <mxGeometry relative="1" as="geometry" />
        </mxCell>
        <mxCell id="QNg-gRqNgSrWkJkMe1LB-45" value="se abona" style="rhombus;whiteSpace=wrap;html=1;" vertex="1" parent="1">
          <mxGeometry x="586" y="460" width="50" height="50" as="geometry" />
        </mxCell>
        <mxCell id="QNg-gRqNgSrWkJkMe1LB-51" style="edgeStyle=orthogonalEdgeStyle;rounded=0;orthogonalLoop=1;jettySize=auto;html=1;entryX=0.5;entryY=0;entryDx=0;entryDy=0;" edge="1" parent="1" source="QNg-gRqNgSrWkJkMe1LB-47" target="QNg-gRqNgSrWkJkMe1LB-50">
          <mxGeometry relative="1" as="geometry" />
        </mxCell>
        <mxCell id="QNg-gRqNgSrWkJkMe1LB-52" style="edgeStyle=orthogonalEdgeStyle;rounded=0;orthogonalLoop=1;jettySize=auto;html=1;entryX=0.5;entryY=0;entryDx=0;entryDy=0;" edge="1" parent="1" source="QNg-gRqNgSrWkJkMe1LB-47" target="QNg-gRqNgSrWkJkMe1LB-49">
          <mxGeometry relative="1" as="geometry" />
        </mxCell>
        <mxCell id="QNg-gRqNgSrWkJkMe1LB-57" value="" style="edgeStyle=orthogonalEdgeStyle;rounded=0;orthogonalLoop=1;jettySize=auto;html=1;" edge="1" parent="1" source="QNg-gRqNgSrWkJkMe1LB-47" target="QNg-gRqNgSrWkJkMe1LB-56">
          <mxGeometry relative="1" as="geometry" />
        </mxCell>
        <mxCell id="QNg-gRqNgSrWkJkMe1LB-47" value="TARJETA" style="whiteSpace=wrap;html=1;" vertex="1" parent="1">
          <mxGeometry x="551" y="610" width="120" height="60" as="geometry" />
        </mxCell>
        <mxCell id="QNg-gRqNgSrWkJkMe1LB-49" value="CRÉDITO" style="whiteSpace=wrap;html=1;" vertex="1" parent="1">
          <mxGeometry x="636" y="710" width="120" height="60" as="geometry" />
        </mxCell>
        <mxCell id="QNg-gRqNgSrWkJkMe1LB-50" value="DÉBITO" style="whiteSpace=wrap;html=1;" vertex="1" parent="1">
          <mxGeometry x="466" y="710" width="120" height="60" as="geometry" />
        </mxCell>
        <mxCell id="QNg-gRqNgSrWkJkMe1LB-53" value="BANCO" style="whiteSpace=wrap;html=1;" vertex="1" parent="1">
          <mxGeometry x="240" y="610" width="120" height="60" as="geometry" />
        </mxCell>
        <mxCell id="QNg-gRqNgSrWkJkMe1LB-58" value="" style="edgeStyle=orthogonalEdgeStyle;rounded=0;orthogonalLoop=1;jettySize=auto;html=1;" edge="1" parent="1" source="QNg-gRqNgSrWkJkMe1LB-56" target="QNg-gRqNgSrWkJkMe1LB-53">
          <mxGeometry relative="1" as="geometry" />
        </mxCell>
        <mxCell id="QNg-gRqNgSrWkJkMe1LB-56" value="corresponde" style="rhombus;whiteSpace=wrap;html=1;" vertex="1" parent="1">
          <mxGeometry x="431" y="615" width="55" height="50" as="geometry" />
        </mxCell>
        <mxCell id="QNg-gRqNgSrWkJkMe1LB-61" value="" style="edgeStyle=orthogonalEdgeStyle;rounded=0;orthogonalLoop=1;jettySize=auto;html=1;" edge="1" parent="1" source="QNg-gRqNgSrWkJkMe1LB-59" target="QNg-gRqNgSrWkJkMe1LB-60">
          <mxGeometry relative="1" as="geometry" />
        </mxCell>
        <mxCell id="QNg-gRqNgSrWkJkMe1LB-59" value="ENTIDAD&lt;br&gt;EMISORA" style="whiteSpace=wrap;html=1;" vertex="1" parent="1">
          <mxGeometry x="690" y="490" width="120" height="60" as="geometry" />
        </mxCell>
        <mxCell id="QNg-gRqNgSrWkJkMe1LB-62" value="" style="edgeStyle=orthogonalEdgeStyle;rounded=0;orthogonalLoop=1;jettySize=auto;html=1;" edge="1" parent="1" source="QNg-gRqNgSrWkJkMe1LB-60" target="QNg-gRqNgSrWkJkMe1LB-47">
          <mxGeometry relative="1" as="geometry" />
        </mxCell>
        <mxCell id="QNg-gRqNgSrWkJkMe1LB-60" value="emite" style="rhombus;whiteSpace=wrap;html=1;" vertex="1" parent="1">
          <mxGeometry x="720" y="610" width="60" height="60" as="geometry" />
        </mxCell>
      </root>
    </mxGraphModel>
  </diagram>
</mxfile>
